HIERARCHY
ROOT hips
{
	OFFSET -0.003675 0.299928 -0.021708
	CHANNELS 6 Xposition Yposition Zposition Xrotation Yrotation Zrotation
	JOINT LowerBack
	{
		OFFSET 0.000919 0.177588 0.009275
		CHANNELS 3 Xrotation Yrotation Zrotation
		JOINT spine
		{
			OFFSET 0.000919 0.177588 0.009275
			CHANNELS 3 Xrotation Yrotation Zrotation
			JOINT chest
			{
				OFFSET 0.000456 0.100015 0.004638
				CHANNELS 3 Xrotation Yrotation Zrotation
				JOINT neck
				{
					OFFSET 0.000456 0.100015 0.004638
					CHANNELS 3 Xrotation Yrotation Zrotation
					JOINT head
					{
						OFFSET 0.000924 0.155147 0.009274
						CHANNELS 6 Xposition Yposition Zposition Xrotation Yrotation Zrotation
						End Site
						{
							OFFSET 0.000000 0.153400 0.000000
						}
					}
				}
				JOINT shoulder.L
				{
					OFFSET 0.019937 0.078966 0.057518
					CHANNELS 6 Xposition Yposition Zposition Yrotation Xrotation Zrotation
					JOINT upper_arm.L
					{
						OFFSET 0.177024 -0.020465 -0.095062
						CHANNELS 6 Xposition Yposition Zposition Xrotation Yrotation Zrotation
						JOINT forearm.L
						{
							OFFSET 0.247100 -0.135500 -0.061800
							CHANNELS 3 Xrotation Yrotation Zrotation
							JOINT hand.L
							{
								OFFSET 0.217000 -0.143000 0.039300
								CHANNELS 3 Xrotation Yrotation Zrotation
								JOINT palm.01.L
								{
									OFFSET 0.021770 -0.038291 0.012954
									CHANNELS 6 Xposition Yposition Zposition Yrotation Xrotation Zrotation
									JOINT f_index.01.L
									{
										OFFSET 0.053215 -0.044137 0.008236
										CHANNELS 3 Xrotation Yrotation Zrotation
										JOINT f_index.02.L
										{
											OFFSET 0.036108 -0.024723 -0.010656
											CHANNELS 3 Xrotation Yrotation Zrotation
											JOINT f_index.03.L
											{
												OFFSET 0.021342 -0.014948 -0.010846
												CHANNELS 3 Xrotation Yrotation Zrotation
												End Site
												{
													OFFSET 0.015600 -0.009860 -0.013421
												}
											}
										}
									}
									JOINT thumb.01.L
									{
										OFFSET -0.009090 -0.002348 -0.024223
										CHANNELS 6 Xposition Yposition Zposition Xrotation Yrotation Zrotation
										JOINT thumb.02.L
										{
											OFFSET 0.019713 -0.035076 -0.011120
											CHANNELS 3 Xrotation Yrotation Zrotation
											JOINT thumb.03.L
											{
												OFFSET 0.024877 -0.021748 -0.005176
												CHANNELS 3 Xrotation Yrotation Zrotation
												End Site
												{
													OFFSET 0.016125 -0.013029 -0.001569
												}
											}
										}
									}
								}
								JOINT palm.02.L
								{
									OFFSET 0.032823 -0.025104 0.012281
									CHANNELS 6 Xposition Yposition Zposition Yrotation Xrotation Zrotation
									JOINT f_middle.01.L
									{
										OFFSET 0.055723 -0.038469 0.008037
										CHANNELS 3 Xrotation Yrotation Zrotation
										JOINT f_middle.02.L
										{
											OFFSET 0.038167 -0.027473 -0.015582
											CHANNELS 3 Xrotation Yrotation Zrotation
											JOINT f_middle.03.L
											{
												OFFSET 0.021707 -0.016587 -0.017037
												CHANNELS 3 Xrotation Yrotation Zrotation
												End Site
												{
													OFFSET 0.014112 -0.010584 -0.014294
												}
											}
										}
									}
								}
								JOINT palm.03.L
								{
									OFFSET 0.039230 -0.011402 0.008390
									CHANNELS 6 Xposition Yposition Zposition Yrotation Xrotation Zrotation
									JOINT f_ring.01.L
									{
										OFFSET 0.061796 -0.031470 0.007910
										CHANNELS 3 Xrotation Yrotation Zrotation
										JOINT f_ring.02.L
										{
											OFFSET 0.033092 -0.023401 -0.019127
											CHANNELS 3 Xrotation Yrotation Zrotation
											JOINT f_ring.03.L
											{
												OFFSET 0.021392 -0.015362 -0.017824
												CHANNELS 3 Xrotation Yrotation Zrotation
												End Site
												{
													OFFSET 0.008670 -0.007297 -0.014686
												}
											}
										}
									}
								}
								JOINT palm.04.L
								{
									OFFSET 0.043417 0.002450 0.002889
									CHANNELS 6 Xposition Yposition Zposition Yrotation Xrotation Zrotation
									JOINT f_pinky.01.L
									{
										OFFSET 0.069986 -0.026156 0.003627
										CHANNELS 3 Xrotation Yrotation Zrotation
										JOINT f_pinky.02.L
										{
											OFFSET 0.018520 -0.012813 -0.016429
											CHANNELS 3 Xrotation Yrotation Zrotation
											JOINT f_pinky.03.L
											{
												OFFSET 0.013822 -0.009796 -0.014947
												CHANNELS 3 Xrotation Yrotation Zrotation
												End Site
												{
													OFFSET 0.007238 -0.006103 -0.011657
												}
											}
										}
									}
								}
							}
						}
					}
				}
				JOINT shoulder.R
				{
					OFFSET -0.016662 0.078957 0.057696
					CHANNELS 6 Xposition Yposition Zposition Yrotation Xrotation Zrotation
					JOINT upper_arm.R
					{
						OFFSET -0.176972 -0.020537 -0.095144
						CHANNELS 6 Xposition Yposition Zposition Xrotation Yrotation Zrotation
						JOINT forearm.R
						{
							OFFSET -0.247100 -0.135500 -0.061800
							CHANNELS 3 Xrotation Yrotation Zrotation
							JOINT hand.R
							{
								OFFSET -0.217000 -0.143000 0.039300
								CHANNELS 3 Xrotation Yrotation Zrotation
								JOINT palm.01.R
								{
									OFFSET -0.021773 -0.038278 0.012988
									CHANNELS 6 Xposition Yposition Zposition Yrotation Xrotation Zrotation
									JOINT f_index.01.R
									{
										OFFSET -0.053212 -0.044139 0.008249
										CHANNELS 3 Xrotation Yrotation Zrotation
										JOINT f_index.02.R
										{
											OFFSET -0.036049 -0.024835 -0.010634
											CHANNELS 3 Xrotation Yrotation Zrotation
											JOINT f_index.03.R
											{
												OFFSET -0.021371 -0.014881 -0.010866
												CHANNELS 3 Xrotation Yrotation Zrotation
												End Site
												{
													OFFSET -0.015584 -0.009883 -0.013422
												}
											}
										}
									}
									JOINT thumb.01.R
									{
										OFFSET 0.009113 -0.002381 -0.024211
										CHANNELS 6 Xposition Yposition Zposition Xrotation Yrotation Zrotation
										JOINT thumb.02.R
										{
											OFFSET -0.019694 -0.035097 -0.011088
											CHANNELS 3 Xrotation Yrotation Zrotation
											JOINT thumb.03.R
											{
												OFFSET -0.024867 -0.021762 -0.005168
												CHANNELS 3 Xrotation Yrotation Zrotation
												End Site
												{
													OFFSET -0.016120 -0.013036 -0.001565
												}
											}
										}
									}
								}
								JOINT palm.02.R
								{
									OFFSET -0.032828 -0.025095 0.012286
									CHANNELS 6 Xposition Yposition Zposition Yrotation Xrotation Zrotation
									JOINT f_middle.01.R
									{
										OFFSET -0.055721 -0.038472 0.008040
										CHANNELS 3 Xrotation Yrotation Zrotation
										JOINT f_middle.02.R
										{
											OFFSET -0.038101 -0.027593 -0.015557
											CHANNELS 3 Xrotation Yrotation Zrotation
											JOINT f_middle.03.R
											{
												OFFSET -0.021730 -0.016530 -0.017054
												CHANNELS 3 Xrotation Yrotation Zrotation
												End Site
												{
													OFFSET -0.014096 -0.010608 -0.014293
												}
											}
										}
									}
								}
								JOINT palm.03.R
								{
									OFFSET -0.039192 -0.011488 0.008390
									CHANNELS 6 Xposition Yposition Zposition Yrotation Xrotation Zrotation
									JOINT f_ring.01.R
									{
										OFFSET -0.061839 -0.031387 0.007876
										CHANNELS 3 Xrotation Yrotation Zrotation
										JOINT f_ring.02.R
										{
											OFFSET -0.033068 -0.023437 -0.019125
											CHANNELS 3 Xrotation Yrotation Zrotation
											JOINT f_ring.03.R
											{
												OFFSET -0.021371 -0.015393 -0.017822
												CHANNELS 3 Xrotation Yrotation Zrotation
												End Site
												{
													OFFSET -0.008654 -0.007321 -0.014684
												}
											}
										}
									}
								}
								JOINT palm.04.R
								{
									OFFSET -0.043421 0.002443 0.002845
									CHANNELS 6 Xposition Yposition Zposition Yrotation Xrotation Zrotation
									JOINT f_pinky.01.R
									{
										OFFSET -0.069983 -0.026169 0.003599
										CHANNELS 3 Xrotation Yrotation Zrotation
										JOINT f_pinky.02.R
										{
											OFFSET -0.018501 -0.012842 -0.016428
											CHANNELS 3 Xrotation Yrotation Zrotation
											JOINT f_pinky.03.R
											{
												OFFSET -0.013806 -0.009821 -0.014946
												CHANNELS 3 Xrotation Yrotation Zrotation
												End Site
												{
													OFFSET -0.007226 -0.006121 -0.011655
												}
											}
										}
									}
								}
							}
						}
					}
				}
			}
		}
	}
	JOINT pelvis.L
	{
		OFFSET 0.000000 0.000000 0.000000
		CHANNELS 6 Xposition Yposition Zposition Xrotation Yrotation Zrotation
		JOINT thigh.L
		{
			OFFSET 0.101675 0.001054 -0.000000
			CHANNELS 3 Xrotation Yrotation Zrotation
			JOINT shin.L
			{
				OFFSET 0.000000 -0.534800 0.041000
				CHANNELS 3 Xrotation Yrotation Zrotation
				JOINT foot.L
				{
					OFFSET 0.000000 -0.452000 -0.044800
					CHANNELS 3 Xrotation Yrotation Zrotation
					JOINT toe.L
					{
						OFFSET -0.000000 -0.068500 0.109600
						CHANNELS 3 Xrotation Yrotation Zrotation
						End Site
						{
							OFFSET -0.000000 0.000000 0.067200
						}
					}
				}
				JOINT heel.L
				{
					OFFSET 0.000000 -0.452000 -0.044800
					CHANNELS 3 Xrotation Yrotation Zrotation
					JOINT heel.02.L
					{
						OFFSET -0.038000 -0.085200 0.016200
						CHANNELS 6 Xposition Yposition Zposition Xrotation Yrotation Zrotation
						End Site
						{
							OFFSET 0.080000 -0.000000 0.000000
						}
					}
				}
			}
		}
	}
	JOINT pelvis.R
	{
		OFFSET 0.000000 0.000000 0.000000
		CHANNELS 6 Xposition Yposition Zposition Xrotation Yrotation Zrotation
		JOINT thigh.R
		{
			OFFSET -0.094325 0.001054 0.000000
			CHANNELS 3 Xrotation Yrotation Zrotation
			JOINT shin.R
			{
				OFFSET 0.000000 -0.534800 0.041000
				CHANNELS 3 Xrotation Yrotation Zrotation
				JOINT foot.R
				{
					OFFSET 0.000000 -0.452000 -0.044800
					CHANNELS 3 Xrotation Yrotation Zrotation
					JOINT toe.R
					{
						OFFSET -0.000000 -0.068500 0.109600
						CHANNELS 3 Xrotation Yrotation Zrotation
						End Site
						{
							OFFSET -0.000000 0.000000 0.067200
						}
					}
				}
				JOINT heel.R
				{
					OFFSET 0.000000 -0.452000 -0.044800
					CHANNELS 3 Xrotation Yrotation Zrotation
					JOINT heel.02.R
					{
						OFFSET 0.038000 -0.085200 0.016200
						CHANNELS 6 Xposition Yposition Zposition Xrotation Yrotation Zrotation
						End Site
						{
							OFFSET -0.080000 0.000000 -0.000000
						}
					}
				}
			}
		}
	}
}
MOTION
Frames: 4
Frame Time: 0.041667
0.005160 0.206612 0.006640 20.887325 6.253795 86.245891 -0.000000 -0.000002 -0.000000 0.000000 -0.000002 -0.000001 0.000000 -0.000002 -0.000000 0.000001 0.000000 -0.000000 0.000924 0.155148 0.009274 9.868521 -0.067998 -34.251442 0.019937 0.078966 0.057518 5.724176 5.455554 42.014491 0.177024 -0.020465 -0.095062 -15.983170 -8.622232 -5.815190 35.058914 -14.961727 96.818048 0.000002 0.000005 0.000000 0.021770 -0.038291 0.012954 0.000002 0.000004 0.000001 -0.000001 0.000000 -0.000000 -0.000000 0.000003 0.000005 -0.000002 0.000001 -0.000000 -0.009090 -0.002348 -0.024223 0.000004 -0.000002 0.000003 0.000001 -0.000003 -0.000001 0.000004 0.000001 -0.000002 0.032823 -0.025104 0.012281 -0.000001 0.000006 0.000004 0.000002 0.000001 -0.000008 -0.000003 0.000003 0.000005 -0.000001 0.000005 0.000001 0.039230 -0.011402 0.008390 -0.000001 0.000004 0.000003 0.000007 0.000001 0.000005 -0.000002 0.000004 0.000005 -0.000000 -0.000004 -0.000002 0.043418 0.002450 0.002889 -0.000000 0.000003 -0.000003 -0.000003 -0.000004 0.000003 -0.000001 0.000002 -0.000001 -0.000001 -0.000000 -0.000003 -0.016662 0.078957 0.057696 -8.735299 5.488198 -39.325087 -0.176972 -0.020537 -0.095144 -11.416322 -9.127190 32.066936 20.531414 -24.464110 -140.491500 -0.000001 -0.000001 -0.000001 -0.021773 -0.038278 0.012988 0.000002 -0.000000 0.000002 -0.000003 0.000002 0.000001 -0.000006 0.000001 -0.000001 -0.000002 0.000002 0.000003 0.009114 -0.002381 -0.024211 -0.000002 -0.000003 -0.000001 0.000002 0.000003 0.000002 0.000001 -0.000004 0.000003 -0.032828 -0.025095 0.012286 0.000004 0.000000 0.000001 -0.000001 0.000002 0.000004 0.000001 0.000001 0.000001 -0.000002 0.000009 -0.000002 -0.039192 -0.011488 0.008390 0.000004 0.000001 0.000003 -0.000001 0.000002 -0.000003 -0.000002 -0.000003 0.000003 0.000002 -0.000007 -0.000002 -0.043421 0.002443 0.002844 0.000001 -0.000000 0.000004 0.000003 0.000005 0.000002 0.000002 -0.000003 0.000000 0.000001 -0.000004 0.000001 0.000000 0.000000 0.000000 -1.936657 0.466917 -6.380210 74.263219 -0.719039 -12.581461 -23.795085 -0.113834 1.150711 0.000002 -0.000002 0.000000 -0.000003 0.000001 0.000001 0.000000 -0.000001 0.000000 -0.038000 -0.085200 0.016200 -0.000001 -0.000003 0.000002 0.000000 0.000000 0.000000 -1.879166 0.461089 -5.146489 70.130600 -0.284434 -0.000777 -18.248633 1.118159 -11.356807 -0.000003 -0.000001 -0.000001 -0.000002 -0.000000 0.000000 0.000007 -0.000001 0.000001 0.038000 -0.085200 0.016200 -0.000003 -0.000001 -0.000000 
0.005804 0.207576 0.007632 18.517290 5.847179 86.401579 0.000000 -0.000000 -0.000000 0.000001 -0.000000 -0.000000 -0.000000 0.000001 0.000000 -0.000000 0.000002 0.000001 0.000924 0.155147 0.009274 11.795856 -0.055535 -28.796313 0.019937 0.078966 0.057518 1.334573 4.779393 41.512319 0.177024 -0.020465 -0.095062 -19.261427 -7.870269 -10.950541 42.482537 -15.232068 102.307163 -0.000000 0.000001 -0.000001 0.021770 -0.038291 0.012954 0.000001 -0.000001 -0.000001 -0.000004 -0.000002 -0.000002 -0.000002 -0.000004 0.000006 0.000002 -0.000004 -0.000002 -0.009090 -0.002348 -0.024223 -0.000003 -0.000001 -0.000001 -0.000002 -0.000001 0.000001 -0.000002 -0.000002 0.000003 0.032823 -0.025104 0.012281 0.000000 -0.000001 -0.000001 -0.000003 0.000001 -0.000003 -0.000003 -0.000002 0.000001 -0.000000 0.000002 0.000004 0.039230 -0.011402 0.008390 0.000000 -0.000002 0.000006 0.000005 0.000003 0.000005 0.000002 0.000001 0.000003 0.000003 -0.000002 0.000003 0.043417 0.002450 0.002889 0.000004 -0.000001 -0.000005 -0.000002 -0.000003 0.000003 -0.000004 0.000003 -0.000000 -0.000004 -0.000002 0.000002 -0.016662 0.078957 0.057696 -10.979752 5.187112 -36.441443 -0.176972 -0.020537 -0.095144 -11.912137 -9.098950 34.143241 13.278335 -30.446080 -154.757292 0.000003 0.000000 0.000002 -0.021773 -0.038278 0.012988 -0.000002 0.000003 -0.000002 0.000002 0.000004 -0.000003 -0.000001 -0.000004 -0.000010 -0.000000 0.000001 0.000006 0.009114 -0.002381 -0.024211 0.000002 0.000000 -0.000002 0.000002 0.000003 -0.000001 0.000001 0.000000 -0.000004 -0.032828 -0.025095 0.012286 0.000001 0.000003 -0.000003 0.000002 0.000003 0.000002 0.000002 -0.000004 -0.000001 -0.000002 0.000006 -0.000005 -0.039192 -0.011488 0.008390 0.000001 0.000004 0.000001 0.000000 0.000006 -0.000002 -0.000001 -0.000001 0.000003 0.000001 0.000002 -0.000000 -0.043421 0.002443 0.002845 0.000000 0.000005 0.000002 -0.000003 0.000003 -0.000002 0.000001 -0.000004 -0.000006 0.000002 0.000003 0.000001 0.000000 0.000000 -0.000000 -1.950969 0.382554 -5.395989 76.108853 -0.691829 -12.260787 -25.425091 -0.183007 1.848790 0.000002 -0.000000 -0.000001 -0.000002 -0.000001 0.000001 0.000005 0.000001 0.000000 -0.038000 -0.085200 0.016200 -0.000002 -0.000001 -0.000000 0.000000 0.000000 -0.000000 -1.896049 0.377943 -4.162164 72.587542 -0.222449 0.883192 -19.639611 0.992421 -10.065174 -0.000005 -0.000001 0.000001 0.000002 0.000002 0.000000 -0.000002 -0.000001 0.000000 0.038000 -0.085200 0.016200 -0.000001 0.000000 0.000001 
0.005893 0.207018 0.007989 18.256561 6.288584 86.528859 -0.000001 0.000001 0.000000 0.000000 0.000002 0.000000 0.000001 0.000002 -0.000000 0.000002 0.000001 -0.000000 0.000924 0.155148 0.009274 11.982091 -0.055843 -28.638257 0.019937 0.078966 0.057518 -0.039153 4.240288 41.572790 0.177024 -0.020465 -0.095062 -15.538791 -7.566891 -5.690401 36.929327 -17.952701 96.187744 -0.000003 0.000001 0.000001 0.021770 -0.038291 0.012954 0.000007 0.000003 -0.000001 -0.000003 -0.000003 -0.000001 -0.000004 0.000003 0.000005 0.000001 0.000003 -0.000002 -0.009090 -0.002348 -0.024223 0.000001 -0.000001 -0.000003 0.000003 0.000004 -0.000000 -0.000000 -0.000002 0.000003 0.032823 -0.025104 0.012281 0.000004 0.000001 0.000002 0.000004 0.000000 -0.000007 -0.000003 -0.000002 0.000003 -0.000001 -0.000003 0.000003 0.039230 -0.011402 0.008390 0.000005 0.000002 0.000001 0.000001 0.000002 -0.000002 0.000001 -0.000004 0.000005 0.000002 -0.000003 -0.000000 0.043417 0.002450 0.002889 0.000005 0.000003 -0.000002 -0.000000 -0.000003 -0.000000 0.000002 -0.000000 -0.000001 -0.000001 0.000000 -0.000001 -0.016662 0.078957 0.057696 -12.015266 4.700468 -35.120710 -0.176972 -0.020537 -0.095144 -11.732874 -6.927854 25.157673 11.662420 -27.455091 -151.828589 0.000002 0.000002 -0.000002 -0.021773 -0.038278 0.012988 -0.000002 -0.000000 -0.000005 -0.000003 -0.000003 -0.000001 0.000000 -0.000004 -0.000003 -0.000002 0.000000 0.000001 0.009113 -0.002381 -0.024212 -0.000000 -0.000004 0.000000 0.000001 -0.000002 -0.000001 0.000001 0.000000 -0.000004 -0.032828 -0.025095 0.012286 0.000001 0.000003 -0.000004 0.000001 0.000005 -0.000003 -0.000002 0.000000 -0.000000 -0.000000 0.000003 -0.000008 -0.039192 -0.011488 0.008390 0.000001 0.000001 0.000003 -0.000001 0.000002 -0.000005 0.000000 -0.000008 0.000003 -0.000003 -0.000003 -0.000001 -0.043421 0.002443 0.002845 -0.000001 -0.000001 0.000004 -0.000001 0.000008 -0.000001 -0.000003 -0.000003 0.000002 -0.000000 -0.000003 -0.000001 -0.000000 0.000000 -0.000000 -2.030779 0.400964 -5.527755 75.593856 -0.668230 -11.969062 -25.766656 -0.140550 1.420197 -0.000002 0.000000 -0.000000 -0.000000 0.000000 0.000001 0.000003 0.000000 -0.000001 -0.038000 -0.085200 0.016200 -0.000002 -0.000000 -0.000000 -0.000000 0.000000 -0.000000 -1.973250 0.396008 -4.293967 72.866521 -0.263528 0.385505 -22.024232 0.927174 -9.397111 -0.000003 -0.000000 -0.000001 0.000003 -0.000000 -0.000000 0.000003 0.000001 -0.000000 0.038000 -0.085200 0.016200 -0.000000 -0.000001 0.000001 
0.004846 0.206946 0.007865 18.757940 6.630888 86.744106 0.000001 -0.000000 0.000000 0.000001 -0.000002 0.000000 -0.000001 0.000001 -0.000001 0.000001 0.000001 -0.000001 0.000924 0.155148 0.009274 13.208958 -0.061529 -30.005161 0.019937 0.078966 0.057518 3.143877 4.240283 41.099844 0.177024 -0.020465 -0.095062 -10.422514 -9.111196 3.927405 26.723696 -20.419826 84.121190 -0.000002 0.000001 0.000001 0.021770 -0.038291 0.012954 0.000004 -0.000000 -0.000002 0.000000 -0.000002 -0.000000 0.000005 -0.000000 0.000003 -0.000001 0.000008 -0.000000 -0.009090 -0.002348 -0.024224 -0.000002 -0.000003 0.000000 -0.000003 -0.000003 0.000003 -0.000001 -0.000001 0.000003 0.032823 -0.025104 0.012281 0.000002 0.000001 0.000007 -0.000006 0.000003 -0.000001 -0.000004 -0.000002 0.000001 -0.000000 -0.000002 0.000004 0.039230 -0.011402 0.008390 0.000002 -0.000004 0.000008 0.000003 0.000002 -0.000000 -0.000001 0.000002 0.000003 0.000000 -0.000001 0.000003 0.043417 0.002450 0.002889 0.000001 0.000001 0.000002 -0.000007 -0.000001 -0.000002 -0.000002 0.000002 -0.000001 -0.000003 -0.000003 -0.000002 -0.016662 0.078957 0.057696 -9.093971 4.369447 -37.019448 -0.176972 -0.020537 -0.095144 -8.564014 -7.280621 16.889996 13.943986 -22.386987 -140.896912 0.000002 0.000001 -0.000003 -0.021773 -0.038278 0.012988 0.000001 0.000002 -0.000003 -0.000003 -0.000001 -0.000001 0.000001 0.000001 -0.000006 -0.000004 0.000004 0.000005 0.009113 -0.002381 -0.024212 0.000000 0.000000 0.000001 0.000000 0.000001 0.000002 -0.000003 -0.000003 -0.000003 -0.032828 -0.025095 0.012286 0.000001 -0.000001 0.000001 -0.000002 -0.000000 -0.000003 0.000002 0.000001 -0.000002 -0.000003 0.000006 -0.000005 -0.039192 -0.011488 0.008390 0.000002 0.000000 -0.000000 -0.000000 -0.000002 -0.000002 0.000001 -0.000000 0.000003 0.000001 -0.000003 0.000001 -0.043421 0.002442 0.002845 0.000003 0.000002 0.000000 -0.000001 0.000005 -0.000001 -0.000001 0.000001 0.000004 -0.000002 -0.000001 -0.000001 0.000000 0.000000 -0.000000 -2.076303 0.525014 -6.869413 74.265166 -0.681403 -12.148017 -23.992686 -0.145028 1.465491 0.000000 0.000002 0.000000 -0.000004 0.000000 0.000001 -0.000003 0.000000 0.000000 -0.038000 -0.085200 0.016200 -0.000000 0.000001 0.000001 0.000000 0.000000 0.000000 -2.013206 0.518080 -5.635801 70.994960 -0.224607 0.868664 -20.694898 0.959293 -9.725791 -0.000005 0.000001 0.000001 -0.000002 0.000000 -0.000001 0.000002 -0.000000 0.000000 0.038000 -0.085200 0.016200 -0.000002 -0.000002 0.000001 
